<svg xmlns="http://www.w3.org/2000/svg" viewBox="0 0 170.39 180"><defs><style>.cls-1{fill:none;stroke:#f6663f;stroke-linecap:round;stroke-linejoin:round;stroke-width:2px;}</style></defs><title>Asset 1</title><g id="Layer_2" data-name="Layer 2"><g id="Layer_1-2" data-name="Layer 1"><line class="cls-1" x1="109.57" y1="169.65" x2="101.36" y2="166.81"/><polyline class="cls-1" points="36.4 14.75 43.19 37.75 62.11 12.44 0.13 95.34 24.34 152.97 74.71 27.3 51.67 0.13 36.4 14.75 3.13 46.61 19.52 3.06 51.67 0.13"/><polyline class="cls-1" points="109.57 169.65 116.34 161.16 149.01 164.07 132.87 140.42 148.64 120.63 163.48 131.57 137.05 135.17 132.87 140.42 102.22 95.52 114.11 95.16 89.67 77.13 114.11 95.16 170.27 93.5 132.87 140.42 89.67 77.13 47.17 96 24.34 152.97"/><path class="cls-1" d="M116.34,161.16l-92-8.19,64.52,26.9,18.66-19.5"/></g></g></svg>